<?xml version="1.0" encoding="UTF-8" standalone="no"?>
<!-- Created with qrencode 3.4.2 (http://fukuchi.org/works/qrencode/index.html.en) -->

<svg
   xmlns:dc="http://purl.org/dc/elements/1.1/"
   xmlns:cc="http://creativecommons.org/ns#"
   xmlns:rdf="http://www.w3.org/1999/02/22-rdf-syntax-ns#"
   xmlns:svg="http://www.w3.org/2000/svg"
   xmlns="http://www.w3.org/2000/svg"
   xmlns:sodipodi="http://sodipodi.sourceforge.net/DTD/sodipodi-0.dtd"
   xmlns:inkscape="http://www.inkscape.org/namespaces/inkscape"
   width="2.9713104cm"
   height="2.8cm"
   viewBox="0 0 28.095485 26.475645"
   preserveAspectRatio="none"
   version="1.1"
   id="svg336"
   sodipodi:docname="website-qr.svg"
   inkscape:version="0.92.1 r15371">
  <metadata
     id="metadata342">
    <rdf:RDF>
      <cc:Work
         rdf:about="">
        <dc:format>image/svg+xml</dc:format>
        <dc:type
           rdf:resource="http://purl.org/dc/dcmitype/StillImage" />
        <dc:title></dc:title>
      </cc:Work>
    </rdf:RDF>
  </metadata>
  <defs
     id="defs340">
    <filter
       style="color-interpolation-filters:sRGB"
       inkscape:label="Blur"
       id="filter5001">
      <feGaussianBlur
         stdDeviation="0.05 0.05"
         result="blur"
         id="feGaussianBlur4999" />
    </filter>
  </defs>
  <sodipodi:namedview
     pagecolor="#ffffff"
     bordercolor="#666666"
     borderopacity="1"
     objecttolerance="10"
     gridtolerance="10"
     guidetolerance="10"
     inkscape:pageopacity="0"
     inkscape:pageshadow="2"
     inkscape:window-width="1920"
     inkscape:window-height="1142"
     id="namedview338"
     showgrid="false"
     inkscape:zoom="5.0605073"
     inkscape:cx="108.32896"
     inkscape:cy="45.989174"
     inkscape:window-x="0"
     inkscape:window-y="0"
     inkscape:window-maximized="1"
     inkscape:current-layer="svg336"
     fit-margin-top="0.2"
     fit-margin-left="0"
     fit-margin-right="0"
     fit-margin-bottom="0.1" />
  <g
     id="Pattern"
     style="filter:url(#filter5001)"
     transform="translate(-2.2913678,-3.2325373)">
    <rect
       style="fill:#000000"
       id="rect4"
       height="1"
       width="7"
       y="4"
       x="4" />
    <rect
       style="fill:#000000"
       id="rect6"
       height="1"
       width="1"
       y="4"
       x="14" />
    <rect
       style="fill:#000000"
       id="rect8"
       height="1"
       width="1"
       y="4"
       x="16" />
    <rect
       style="fill:#000000"
       id="rect10"
       height="1"
       width="1"
       y="4"
       x="20" />
    <rect
       style="fill:#000000"
       id="rect12"
       height="1"
       width="7"
       y="4"
       x="22" />
    <rect
       style="fill:#000000"
       id="rect14"
       height="1"
       width="1"
       y="5"
       x="4" />
    <rect
       style="fill:#000000"
       id="rect16"
       height="1"
       width="1"
       y="5"
       x="10" />
    <rect
       style="fill:#000000"
       id="rect18"
       height="1"
       width="1"
       y="5"
       x="12" />
    <rect
       style="fill:#000000"
       id="rect20"
       height="1"
       width="1"
       y="5"
       x="14" />
    <rect
       style="fill:#000000"
       id="rect22"
       height="1"
       width="2"
       y="5"
       x="18" />
    <rect
       style="fill:#000000"
       id="rect24"
       height="1"
       width="1"
       y="5"
       x="22" />
    <rect
       style="fill:#000000"
       id="rect26"
       height="1"
       width="1"
       y="5"
       x="28" />
    <rect
       style="fill:#000000"
       id="rect28"
       height="1"
       width="1"
       y="6"
       x="4" />
    <rect
       style="fill:#000000"
       id="rect30"
       height="1"
       width="3"
       y="6"
       x="6" />
    <rect
       style="fill:#000000"
       id="rect32"
       height="1"
       width="1"
       y="6"
       x="10" />
    <rect
       style="fill:#000000"
       id="rect34"
       height="1"
       width="1"
       y="6"
       x="16" />
    <rect
       style="fill:#000000"
       id="rect36"
       height="1"
       width="3"
       y="6"
       x="18" />
    <rect
       style="fill:#000000"
       id="rect38"
       height="1"
       width="1"
       y="6"
       x="22" />
    <rect
       style="fill:#000000"
       id="rect40"
       height="1"
       width="3"
       y="6"
       x="24" />
    <rect
       style="fill:#000000"
       id="rect42"
       height="1"
       width="1"
       y="6"
       x="28" />
    <rect
       style="fill:#000000"
       id="rect44"
       height="1"
       width="1"
       y="7"
       x="4" />
    <rect
       style="fill:#000000"
       id="rect46"
       height="1"
       width="3"
       y="7"
       x="6" />
    <rect
       style="fill:#000000"
       id="rect48"
       height="1"
       width="1"
       y="7"
       x="10" />
    <rect
       style="fill:#000000"
       id="rect50"
       height="1"
       width="3"
       y="7"
       x="12" />
    <rect
       style="fill:#000000"
       id="rect52"
       height="1"
       width="4"
       y="7"
       x="16" />
    <rect
       style="fill:#000000"
       id="rect54"
       height="1"
       width="1"
       y="7"
       x="22" />
    <rect
       style="fill:#000000"
       id="rect56"
       height="1"
       width="3"
       y="7"
       x="24" />
    <rect
       style="fill:#000000"
       id="rect58"
       height="1"
       width="1"
       y="7"
       x="28" />
    <rect
       style="fill:#000000"
       id="rect60"
       height="1"
       width="1"
       y="8"
       x="4" />
    <rect
       style="fill:#000000"
       id="rect62"
       height="1"
       width="3"
       y="8"
       x="6" />
    <rect
       style="fill:#000000"
       id="rect64"
       height="1"
       width="1"
       y="8"
       x="10" />
    <rect
       style="fill:#000000"
       id="rect66"
       height="1"
       width="1"
       y="8"
       x="13" />
    <rect
       style="fill:#000000"
       id="rect68"
       height="1"
       width="1"
       y="8"
       x="17" />
    <rect
       style="fill:#000000"
       id="rect70"
       height="1"
       width="1"
       y="8"
       x="20" />
    <rect
       style="fill:#000000"
       id="rect72"
       height="1"
       width="1"
       y="8"
       x="22" />
    <rect
       style="fill:#000000"
       id="rect74"
       height="1"
       width="3"
       y="8"
       x="24" />
    <rect
       style="fill:#000000"
       id="rect76"
       height="1"
       width="1"
       y="8"
       x="28" />
    <rect
       style="fill:#000000"
       id="rect78"
       height="1"
       width="1"
       y="9"
       x="4" />
    <rect
       style="fill:#000000"
       id="rect80"
       height="1"
       width="1"
       y="9"
       x="10" />
    <rect
       style="fill:#000000"
       id="rect82"
       height="1"
       width="2"
       y="9"
       x="12" />
    <rect
       style="fill:#000000"
       id="rect84"
       height="1"
       width="6"
       y="9"
       x="15" />
    <rect
       style="fill:#000000"
       id="rect86"
       height="1"
       width="1"
       y="9"
       x="22" />
    <rect
       style="fill:#000000"
       id="rect88"
       height="1"
       width="1"
       y="9"
       x="28" />
    <rect
       style="fill:#000000"
       id="rect90"
       height="1"
       width="7"
       y="10"
       x="4" />
    <rect
       style="fill:#000000"
       id="rect92"
       height="1"
       width="1"
       y="10"
       x="12" />
    <rect
       style="fill:#000000"
       id="rect94"
       height="1"
       width="1"
       y="10"
       x="14" />
    <rect
       style="fill:#000000"
       id="rect96"
       height="1"
       width="1"
       y="10"
       x="16" />
    <rect
       style="fill:#000000"
       id="rect98"
       height="1"
       width="1"
       y="10"
       x="18" />
    <rect
       style="fill:#000000"
       id="rect100"
       height="1"
       width="1"
       y="10"
       x="20" />
    <rect
       style="fill:#000000"
       id="rect102"
       height="1"
       width="7"
       y="10"
       x="22" />
    <rect
       style="fill:#000000"
       id="rect104"
       height="1"
       width="3"
       y="11"
       x="13" />
    <rect
       style="fill:#000000"
       id="rect106"
       height="1"
       width="5"
       y="12"
       x="4" />
    <rect
       style="fill:#000000"
       id="rect108"
       height="1"
       width="4"
       y="12"
       x="10" />
    <rect
       style="fill:#000000"
       id="rect110"
       height="1"
       width="1"
       y="12"
       x="15" />
    <rect
       style="fill:#000000"
       id="rect112"
       height="1"
       width="1"
       y="12"
       x="17" />
    <rect
       style="fill:#000000"
       id="rect114"
       height="1"
       width="3"
       y="12"
       x="19" />
    <rect
       style="fill:#000000"
       id="rect116"
       height="1"
       width="1"
       y="12"
       x="23" />
    <rect
       style="fill:#000000"
       id="rect118"
       height="1"
       width="1"
       y="12"
       x="25" />
    <rect
       style="fill:#000000"
       id="rect120"
       height="1"
       width="1"
       y="12"
       x="27" />
    <rect
       style="fill:#000000"
       id="rect122"
       height="1"
       width="1"
       y="13"
       x="4" />
    <rect
       style="fill:#000000"
       id="rect124"
       height="1"
       width="1"
       y="13"
       x="9" />
    <rect
       style="fill:#000000"
       id="rect126"
       height="1"
       width="1"
       y="13"
       x="12" />
    <rect
       style="fill:#000000"
       id="rect128"
       height="1"
       width="1"
       y="13"
       x="14" />
    <rect
       style="fill:#000000"
       id="rect130"
       height="1"
       width="2"
       y="13"
       x="16" />
    <rect
       style="fill:#000000"
       id="rect132"
       height="1"
       width="1"
       y="13"
       x="20" />
    <rect
       style="fill:#000000"
       id="rect134"
       height="1"
       width="1"
       y="13"
       x="23" />
    <rect
       style="fill:#000000"
       id="rect136"
       height="1"
       width="1"
       y="13"
       x="27" />
    <rect
       style="fill:#000000"
       id="rect138"
       height="1"
       width="4"
       y="14"
       x="7" />
    <rect
       style="fill:#000000"
       id="rect140"
       height="1"
       width="1"
       y="14"
       x="14" />
    <rect
       style="fill:#000000"
       id="rect142"
       height="1"
       width="9"
       y="14"
       x="17" />
    <rect
       style="fill:#000000"
       id="rect144"
       height="1"
       width="2"
       y="14"
       x="27" />
    <rect
       style="fill:#000000"
       id="rect146"
       height="1"
       width="1"
       y="15"
       x="4" />
    <rect
       style="fill:#000000"
       id="rect148"
       height="1"
       width="1"
       y="15"
       x="7" />
    <rect
       style="fill:#000000"
       id="rect150"
       height="1"
       width="1"
       y="15"
       x="9" />
    <rect
       style="fill:#000000"
       id="rect152"
       height="1"
       width="1"
       y="15"
       x="11" />
    <rect
       style="fill:#000000"
       id="rect154"
       height="1"
       width="1"
       y="15"
       x="16" />
    <rect
       style="fill:#000000"
       id="rect156"
       height="1"
       width="2"
       y="15"
       x="19" />
    <rect
       style="fill:#000000"
       id="rect158"
       height="1"
       width="1"
       y="15"
       x="28" />
    <rect
       style="fill:#000000"
       id="rect160"
       height="1"
       width="2"
       y="16"
       x="4" />
    <rect
       style="fill:#000000"
       id="rect162"
       height="1"
       width="1"
       y="16"
       x="10" />
    <rect
       style="fill:#000000"
       id="rect164"
       height="1"
       width="3"
       y="16"
       x="12" />
    <rect
       style="fill:#000000"
       id="rect166"
       height="1"
       width="4"
       y="16"
       x="16" />
    <rect
       style="fill:#000000"
       id="rect168"
       height="1"
       width="4"
       y="16"
       x="21" />
    <rect
       style="fill:#000000"
       id="rect170"
       height="1"
       width="3"
       y="16"
       x="26" />
    <rect
       style="fill:#000000"
       id="rect172"
       height="1"
       width="1"
       y="17"
       x="4" />
    <rect
       style="fill:#000000"
       id="rect174"
       height="1"
       width="1"
       y="17"
       x="6" />
    <rect
       style="fill:#000000"
       id="rect176"
       height="1"
       width="1"
       y="17"
       x="8" />
    <rect
       style="fill:#000000"
       id="rect178"
       height="1"
       width="1"
       y="17"
       x="13" />
    <rect
       style="fill:#000000"
       id="rect180"
       height="1"
       width="2"
       y="17"
       x="20" />
    <rect
       style="fill:#000000"
       id="rect182"
       height="1"
       width="1"
       y="17"
       x="23" />
    <rect
       style="fill:#000000"
       id="rect184"
       height="1"
       width="1"
       y="17"
       x="25" />
    <rect
       style="fill:#000000"
       id="rect186"
       height="1"
       width="1"
       y="17"
       x="27" />
    <rect
       style="fill:#000000"
       id="rect188"
       height="1"
       width="1"
       y="18"
       x="4" />
    <rect
       style="fill:#000000"
       id="rect190"
       height="1"
       width="6"
       y="18"
       x="7" />
    <rect
       style="fill:#000000"
       id="rect192"
       height="1"
       width="2"
       y="18"
       x="15" />
    <rect
       style="fill:#000000"
       id="rect194"
       height="1"
       width="2"
       y="18"
       x="18" />
    <rect
       style="fill:#000000"
       id="rect196"
       height="1"
       width="2"
       y="18"
       x="21" />
    <rect
       style="fill:#000000"
       id="rect198"
       height="1"
       width="2"
       y="18"
       x="24" />
    <rect
       style="fill:#000000"
       id="rect200"
       height="1"
       width="2"
       y="18"
       x="27" />
    <rect
       style="fill:#000000"
       id="rect202"
       height="1"
       width="1"
       y="19"
       x="4" />
    <rect
       style="fill:#000000"
       id="rect204"
       height="1"
       width="1"
       y="19"
       x="8" />
    <rect
       style="fill:#000000"
       id="rect206"
       height="1"
       width="1"
       y="19"
       x="12" />
    <rect
       style="fill:#000000"
       id="rect208"
       height="1"
       width="1"
       y="19"
       x="15" />
    <rect
       style="fill:#000000"
       id="rect210"
       height="1"
       width="1"
       y="19"
       x="21" />
    <rect
       style="fill:#000000"
       id="rect212"
       height="1"
       width="1"
       y="19"
       x="23" />
    <rect
       style="fill:#000000"
       id="rect214"
       height="1"
       width="1"
       y="19"
       x="25" />
    <rect
       style="fill:#000000"
       id="rect216"
       height="1"
       width="1"
       y="19"
       x="28" />
    <rect
       style="fill:#000000"
       id="rect218"
       height="1"
       width="1"
       y="20"
       x="4" />
    <rect
       style="fill:#000000"
       id="rect220"
       height="1"
       width="1"
       y="20"
       x="7" />
    <rect
       style="fill:#000000"
       id="rect222"
       height="1"
       width="2"
       y="20"
       x="9" />
    <rect
       style="fill:#000000"
       id="rect224"
       height="1"
       width="1"
       y="20"
       x="12" />
    <rect
       style="fill:#000000"
       id="rect226"
       height="1"
       width="2"
       y="20"
       x="14" />
    <rect
       style="fill:#000000"
       id="rect228"
       height="1"
       width="8"
       y="20"
       x="17" />
    <rect
       style="fill:#000000"
       id="rect230"
       height="1"
       width="1"
       y="20"
       x="26" />
    <rect
       style="fill:#000000"
       id="rect232"
       height="1"
       width="2"
       y="21"
       x="12" />
    <rect
       style="fill:#000000"
       id="rect234"
       height="1"
       width="1"
       y="21"
       x="16" />
    <rect
       style="fill:#000000"
       id="rect236"
       height="1"
       width="1"
       y="21"
       x="20" />
    <rect
       style="fill:#000000"
       id="rect238"
       height="1"
       width="3"
       y="21"
       x="24" />
    <rect
       style="fill:#000000"
       id="rect240"
       height="1"
       width="7"
       y="22"
       x="4" />
    <rect
       style="fill:#000000"
       id="rect242"
       height="1"
       width="1"
       y="22"
       x="12" />
    <rect
       style="fill:#000000"
       id="rect244"
       height="1"
       width="1"
       y="22"
       x="14" />
    <rect
       style="fill:#000000"
       id="rect246"
       height="1"
       width="1"
       y="22"
       x="18" />
    <rect
       style="fill:#000000"
       id="rect248"
       height="1"
       width="1"
       y="22"
       x="20" />
    <rect
       style="fill:#000000"
       id="rect250"
       height="1"
       width="1"
       y="22"
       x="22" />
    <rect
       style="fill:#000000"
       id="rect252"
       height="1"
       width="5"
       y="22"
       x="24" />
    <rect
       style="fill:#000000"
       id="rect254"
       height="1"
       width="1"
       y="23"
       x="4" />
    <rect
       style="fill:#000000"
       id="rect256"
       height="1"
       width="1"
       y="23"
       x="10" />
    <rect
       style="fill:#000000"
       id="rect258"
       height="1"
       width="2"
       y="23"
       x="13" />
    <rect
       style="fill:#000000"
       id="rect260"
       height="1"
       width="1"
       y="23"
       x="16" />
    <rect
       style="fill:#000000"
       id="rect262"
       height="1"
       width="1"
       y="23"
       x="18" />
    <rect
       style="fill:#000000"
       id="rect264"
       height="1"
       width="1"
       y="23"
       x="20" />
    <rect
       style="fill:#000000"
       id="rect266"
       height="1"
       width="2"
       y="23"
       x="24" />
    <rect
       style="fill:#000000"
       id="rect268"
       height="1"
       width="1"
       y="23"
       x="27" />
    <rect
       style="fill:#000000"
       id="rect270"
       height="1"
       width="1"
       y="24"
       x="4" />
    <rect
       style="fill:#000000"
       id="rect272"
       height="1"
       width="3"
       y="24"
       x="6" />
    <rect
       style="fill:#000000"
       id="rect274"
       height="1"
       width="1"
       y="24"
       x="10" />
    <rect
       style="fill:#000000"
       id="rect276"
       height="1"
       width="3"
       y="24"
       x="12" />
    <rect
       style="fill:#000000"
       id="rect278"
       height="1"
       width="1"
       y="24"
       x="16" />
    <rect
       style="fill:#000000"
       id="rect280"
       height="1"
       width="10"
       y="24"
       x="19" />
    <rect
       style="fill:#000000"
       id="rect282"
       height="1"
       width="1"
       y="25"
       x="4" />
    <rect
       style="fill:#000000"
       id="rect284"
       height="1"
       width="3"
       y="25"
       x="6" />
    <rect
       style="fill:#000000"
       id="rect286"
       height="1"
       width="1"
       y="25"
       x="10" />
    <rect
       style="fill:#000000"
       id="rect288"
       height="1"
       width="3"
       y="25"
       x="12" />
    <rect
       style="fill:#000000"
       id="rect290"
       height="1"
       width="1"
       y="25"
       x="17" />
    <rect
       style="fill:#000000"
       id="rect292"
       height="1"
       width="1"
       y="25"
       x="19" />
    <rect
       style="fill:#000000"
       id="rect294"
       height="1"
       width="1"
       y="25"
       x="22" />
    <rect
       style="fill:#000000"
       id="rect296"
       height="1"
       width="1"
       y="25"
       x="24" />
    <rect
       style="fill:#000000"
       id="rect298"
       height="1"
       width="3"
       y="25"
       x="26" />
    <rect
       style="fill:#000000"
       id="rect300"
       height="1"
       width="1"
       y="26"
       x="4" />
    <rect
       style="fill:#000000"
       id="rect302"
       height="1"
       width="3"
       y="26"
       x="6" />
    <rect
       style="fill:#000000"
       id="rect304"
       height="1"
       width="1"
       y="26"
       x="10" />
    <rect
       style="fill:#000000"
       id="rect306"
       height="1"
       width="2"
       y="26"
       x="12" />
    <rect
       style="fill:#000000"
       id="rect308"
       height="1"
       width="3"
       y="26"
       x="15" />
    <rect
       style="fill:#000000"
       id="rect310"
       height="1"
       width="1"
       y="26"
       x="23" />
    <rect
       style="fill:#000000"
       id="rect312"
       height="1"
       width="1"
       y="26"
       x="26" />
    <rect
       style="fill:#000000"
       id="rect314"
       height="1"
       width="1"
       y="26"
       x="28" />
    <rect
       style="fill:#000000"
       id="rect316"
       height="1"
       width="1"
       y="27"
       x="4" />
    <rect
       style="fill:#000000"
       id="rect318"
       height="1"
       width="1"
       y="27"
       x="10" />
    <rect
       style="fill:#000000"
       id="rect320"
       height="1"
       width="4"
       y="27"
       x="12" />
    <rect
       style="fill:#000000"
       id="rect322"
       height="1"
       width="3"
       y="27"
       x="19" />
    <rect
       style="fill:#000000"
       id="rect324"
       height="1"
       width="3"
       y="27"
       x="23" />
    <rect
       style="fill:#000000"
       id="rect326"
       height="1"
       width="1"
       y="27"
       x="28" />
    <rect
       style="fill:#000000"
       id="rect328"
       height="1"
       width="7"
       y="28"
       x="4" />
    <rect
       style="fill:#000000"
       id="rect330"
       height="1"
       width="5"
       y="28"
       x="12" />
    <rect
       style="fill:#000000"
       id="rect332"
       height="1"
       width="8"
       y="28"
       x="21" />
  </g>
</svg>
